<svg width="293" height="315" viewBox="0 0 293 315" fill="none" xmlns="http://www.w3.org/2000/svg">
<mask id="mask0_573_390" style="mask-type:luminance" maskUnits="userSpaceOnUse" x="0" y="0" width="293" height="309">
<path d="M293 0H0V308.034H293V0Z" fill="white"/>
</mask>
<g mask="url(#mask0_573_390)">
<path fill-rule="evenodd" clip-rule="evenodd" d="M152.077 1.52086C148.635 -0.50695 144.365 -0.506952 140.923 1.52085L5.41027 81.363C2.05786 83.338 0 86.9393 0 90.8299V250.901C0 254.792 2.05785 258.394 5.41027 260.369L83.7218 306.509C89.6521 310.003 97.298 307.246 99.6339 300.771L125.214 229.868C127.007 224.898 125.008 219.354 120.455 216.672L102.327 205.99C98.9747 204.015 96.9163 200.414 96.9163 196.523V148.662C96.9163 144.77 98.9747 141.169 102.327 139.194L142.614 115.457C146.056 113.429 150.327 113.429 153.769 115.457L194.056 139.194C197.409 141.169 199.466 144.77 199.466 148.662V196.523C199.466 200.414 197.409 204.015 194.056 205.99L173.137 218.316C168.585 220.997 166.586 226.541 168.379 231.512L193.366 300.771C195.702 307.246 203.348 310.003 209.278 306.509L287.59 260.369C290.942 258.394 293 254.792 293 250.901V90.8299C293 86.9393 290.942 83.338 287.59 81.363L152.077 1.52086ZM93.0319 123.415C91.3969 124.378 89.8785 125.486 88.4875 126.716L26.7812 90.027L146.5 19.4907L266.374 90.1186L207.671 126.52C206.342 125.367 204.899 124.326 203.352 123.415L163.064 99.6785C153.887 94.2707 142.497 94.2707 133.319 99.6785L93.0319 123.415ZM93.0312 221.77C84.0917 216.502 78.6038 206.899 78.6038 196.523V148.662C78.6038 146.578 78.8258 144.524 79.2521 142.532L18.3125 106.298V246.715L85.4066 286.246L105.927 229.367L93.0312 221.77ZM217.779 196.523V148.662C217.779 146.476 217.536 144.325 217.068 142.242L274.688 106.512V246.715L207.593 286.246L187.667 231.011L203.352 221.77C212.292 216.502 217.779 206.899 217.779 196.523Z" fill="#5C1A2D"/>
<path d="M78.6038 196.523C78.6038 206.899 84.0917 216.502 93.0312 221.77L105.927 229.367L85.4066 286.246L18.3125 246.715V106.298L79.2521 142.532C78.8258 144.524 78.6038 146.578 78.6038 148.662V196.523Z" fill="#F36F9B"/>
<path d="M133.319 99.6784L93.0319 123.415C91.3969 124.378 89.8785 125.486 88.4874 126.716L26.7811 90.027L146.5 19.4907L266.374 90.1186L207.671 126.52C206.342 125.367 204.899 124.326 203.352 123.415L163.064 99.6784C153.887 94.2707 142.497 94.2707 133.319 99.6784Z" fill="#FFAEC9"/>
<path d="M217.779 196.523V148.662C217.779 146.476 217.536 144.325 217.068 142.242L274.688 106.512V246.715L207.593 286.246L187.667 231.011L203.352 221.769C212.292 216.502 217.779 206.899 217.779 196.523Z" fill="#D15C83"/>
</g>
</svg>
